<svg width="67" height="18" viewBox="0 0 67 18" fill="none" xmlns="http://www.w3.org/2000/svg">
<path d="M49.31 0.260002H45.88V3.67H49.31V0.260002Z" fill="#E10514"/>
<path d="M24.09 14.72C21.69 14.72 20.27 14.01 20.27 11.91H25.86V9.21H20.27V6.87H28.03V3.69H20.25V6.87H16.96V12.9C16.96 15.7 19.62 17.83 23.54 17.83C25.48 17.83 28.03 17.37 30.03 16.35L29 13.67C27.29 14.43 25.31 14.73 24.09 14.73V14.72Z" fill="#E10514"/>
<path d="M50.37 14.71C49.65 14.71 49.19 14.27 49.19 13.11V6.83001H45.88V3.67001H31.27V6.85001H36.45L34.64 17.64H37.99L39.8 6.85001H45.89V13.83C45.89 15.96 47.51 17.83 49.7 17.83C50.5 17.83 51.64 17.58 52.36 17.16L51.33 14.48C51.04 14.61 50.7 14.71 50.38 14.71H50.37Z" fill="#E10514"/>
<path d="M65.16 13.88C63.71 14.4 62.15 14.67 60.99 14.67C57.53 14.67 56.71 12.35 56.71 10.51C56.71 8.04 58.21 6.66 60.25 6.66H61.98L62.07 8.76H65.35V3.85C63.9 3.68 62.62 3.59 60.84 3.59C56.03 3.59 53.33 6.25 53.33 10.76C53.33 14.34 55.65 17.81 60.99 17.81C62.6 17.81 64.28 17.41 66.18 16.56L65.16 13.89V13.88Z" fill="#E10514"/>
<path d="M8.1 3.67001H0.470001V14.44H3.78V6.85001H7.7C9.55 6.85001 10.82 8.45001 10.82 10.56C10.82 12.5 9.74 14.44 7.7 14.44H3.78V17.62H8.1C11.83 17.62 14.21 14.35 14.21 10.58C14.21 6.62001 11.58 3.67001 8.1 3.67001Z" fill="#E10514"/>
</svg>
