<svg width="320" height="320" viewBox="0 0 320 320" fill="none" xmlns="http://www.w3.org/2000/svg">
<path d="M160 0.0111084C116.551 0.0111084 111.104 0.287362 94.0401 0.989591C77.0114 1.7674 65.4044 4.43201 55.2288 8.38873C44.7077 12.4759 35.7492 17.9706 26.8553 26.8651C17.961 35.7596 12.5175 44.6691 8.42954 55.1895C4.47352 65.3661 1.75777 77.0205 0.98099 94.0492C0.20068 111.113 0 116.56 0 160.009C0 203.46 0.200616 208.905 0.98099 225.968C1.75879 242.997 4.47352 254.604 8.42954 264.781C12.5175 275.301 17.961 284.21 26.8553 293.105C35.7492 301.999 44.7077 307.489 55.2288 311.579C65.4044 315.533 77.0114 318.25 94.0401 319.028C111.104 319.806 116.551 319.956 160 319.956C203.449 319.956 208.896 319.706 225.96 319.028C242.988 318.25 254.645 315.533 264.82 311.579C275.341 307.489 284.251 301.999 293.145 293.105C302.039 284.21 307.482 275.301 311.57 264.781C315.526 254.604 318.242 242.997 319.019 225.968C319.799 208.905 320 203.46 320 160.009C320 116.56 319.799 111.113 319.019 94.0492C318.241 77.0205 315.526 65.3661 311.57 55.1895C307.482 44.6691 302.039 35.7596 293.145 26.8651C284.251 17.9706 275.341 12.4759 264.82 8.38873C254.645 4.43201 242.988 1.7674 225.96 0.989591C208.896 0.211789 203.449 0.0111084 160 0.0111084ZM160 28.8247C202.718 28.8247 207.766 29.0753 224.637 29.753C240.234 30.4556 248.745 33.1 254.382 35.2905C261.85 38.1934 267.161 41.6508 272.759 47.2484C278.358 52.8461 281.815 58.1577 284.716 65.6245C286.906 71.2623 289.541 79.7729 290.254 95.3689C291.021 112.24 291.184 117.29 291.184 160.006C291.184 202.725 291.009 207.776 290.254 224.644C289.541 240.242 286.906 248.703 284.716 254.341C281.815 261.807 278.358 267.164 272.759 272.764C267.161 278.362 261.85 281.819 254.382 284.722C248.745 286.905 240.234 289.502 224.637 290.212C207.769 290.99 202.721 291.14 160 291.14C117.279 291.14 112.231 290.89 95.3634 290.212C79.7655 289.509 71.3041 286.913 65.6666 284.722C58.1987 281.819 52.839 278.362 47.2411 272.764C41.6435 267.164 38.1865 261.807 35.2841 254.341C33.0937 248.703 30.5077 240.242 29.7956 224.644C29.0278 207.776 28.8647 202.725 28.8647 160.006C28.8647 117.29 29.0404 112.24 29.7956 95.3689C30.5082 79.7729 33.0937 71.2623 35.2841 65.6245C38.1865 58.1577 41.6435 52.8461 47.2411 47.2484C52.839 41.6508 58.1987 38.1934 65.6666 35.2905C71.3041 33.1076 79.7655 30.4656 95.3634 29.753C112.234 28.9753 117.282 28.8247 160 28.8247ZM245.415 55.3852C234.812 55.3852 226.205 63.9911 226.205 74.5942C226.205 85.1973 234.812 93.8033 245.415 93.8033C256.018 93.8033 264.624 85.1973 264.624 74.5942C264.624 63.9911 256.018 55.3852 245.415 55.3852ZM160 77.8284C114.628 77.8284 77.8687 114.638 77.8687 160.009C77.8687 205.382 114.628 242.139 160 242.139C205.372 242.139 242.18 205.382 242.18 160.009C242.18 114.638 205.372 77.8284 160 77.8284ZM160 106.692C189.452 106.692 213.317 130.558 213.317 160.009C213.317 189.462 189.452 213.326 160 213.326C130.548 213.326 106.683 189.462 106.683 160.009C106.683 130.558 130.548 106.692 160 106.692Z" fill="#E10514"/>
</svg>
