<svg width="456" height="320" viewBox="0 0 456 320" fill="none" xmlns="http://www.w3.org/2000/svg">
<g clip-path="url(#clip0_2_6)">
<path d="M431.358 54.5341L431.36 54.5438C435.661 70.6073 438.003 96.5752 439.195 119.605C439.78 130.896 440.072 141.11 440.219 148.502C440.292 152.194 440.328 155.174 440.346 157.223C440.356 158.247 440.36 159.037 440.362 159.567C440.363 159.698 440.363 159.812 440.363 159.91L440.364 160.162L440.364 160.307L440.364 160.339V160.344V160.345V160.345V160.346V160.346V160.351L440.364 160.384L440.364 160.528C440.364 160.603 440.364 160.7 440.363 160.819C440.363 160.908 440.363 161.01 440.362 161.124C440.36 161.653 440.356 162.444 440.346 163.468C440.328 165.516 440.292 168.496 440.219 172.189C440.072 179.581 439.78 189.795 439.195 201.085C438.003 224.115 435.661 250.083 431.36 266.147L431.358 266.157C427.505 280.583 416.121 291.973 401.724 295.825L401.714 295.828C394.4 297.79 380.196 299.513 361.742 300.861C343.71 302.178 322.828 303.063 302.913 303.655C283.023 304.247 264.219 304.543 250.38 304.691C243.463 304.765 237.794 304.802 233.858 304.821C231.89 304.83 230.356 304.835 229.316 304.837C228.796 304.838 228.4 304.839 228.135 304.839L227.837 304.839L227.764 304.839H227.746H227.743C227.742 304.839 227.742 304.839 227.742 319.839C227.742 304.839 227.742 304.839 227.741 304.839H227.737H227.72L227.646 304.839L227.349 304.839C227.084 304.839 226.687 304.838 226.168 304.837C225.128 304.835 223.594 304.83 221.626 304.821C217.69 304.802 212.021 304.765 205.104 304.691C191.265 304.543 172.461 304.247 152.57 303.655C132.656 303.063 111.774 302.178 93.7419 300.861C75.2877 299.513 61.0835 297.79 53.7696 295.828L53.7598 295.825C39.3628 291.973 27.9786 280.583 24.1261 266.157L24.1235 266.147C19.8224 250.083 17.4806 224.115 16.2886 201.085C15.7042 189.795 15.4114 179.581 15.265 172.189C15.1919 168.496 15.1555 165.516 15.1373 163.468C15.1282 162.444 15.1237 161.653 15.1215 161.124C15.1204 160.859 15.1198 160.659 15.1196 160.528L15.1193 160.384L15.1193 160.351L15.1193 160.346V160.346V160.345V160.344L15.1193 160.339L15.1193 160.307L15.1196 160.162C15.1198 160.031 15.1204 159.832 15.1215 159.567C15.1237 159.037 15.1282 158.247 15.1373 157.223C15.1555 155.174 15.1919 152.194 15.265 148.502C15.4114 141.11 15.7042 130.896 16.2886 119.605C17.4806 96.5752 19.8224 70.6073 24.1235 54.5438L24.1261 54.5341C27.9786 40.1072 39.3628 28.7179 53.7598 24.8657L53.7696 24.8631C61.0835 22.9008 75.2877 21.1773 93.7419 19.8295C111.774 18.5125 132.656 17.6275 152.57 17.0352C172.461 16.4436 191.265 16.1475 205.104 15.9993C212.021 15.9253 217.69 15.8883 221.626 15.8698C223.594 15.8605 225.128 15.8559 226.168 15.8536C226.687 15.8525 227.084 15.8519 227.349 15.8516L227.646 15.8514L227.72 15.8514L227.737 15.8513H227.741C227.742 15.8513 227.742 15.8513 227.742 0.851349C227.742 15.8513 227.742 15.8513 227.743 15.8513H227.746L227.764 15.8514L227.837 15.8514L228.135 15.8516C228.4 15.8519 228.796 15.8525 229.316 15.8536C230.356 15.8559 231.89 15.8605 233.858 15.8698C237.794 15.8883 243.463 15.9253 250.38 15.9993C264.219 16.1475 283.023 16.4436 302.913 17.0352C322.828 17.6275 343.71 18.5125 361.742 19.8295C380.196 21.1773 394.4 22.9008 401.714 24.8631L401.724 24.8657C416.121 28.7179 427.505 40.1072 431.358 54.5341ZM167.217 201.5V225.517L188.799 214.979L273.082 173.824L300.622 160.376L273.106 146.878L188.824 105.533L167.217 94.934V119V201.5Z" stroke="#E10514" stroke-width="30"/>
</g>
<defs>
<clipPath id="clip0_2_6">
<rect width="456" height="320" fill="white"/>
</clipPath>
</defs>
</svg>
